<?xml version="1.0" encoding="UTF-8" standalone="no"?>
<!-- Created with Inkscape (http://www.inkscape.org/) -->

<svg
   xmlns:dc="http://purl.org/dc/elements/1.1/"
   xmlns:cc="http://creativecommons.org/ns#"
   xmlns:rdf="http://www.w3.org/1999/02/22-rdf-syntax-ns#"
   xmlns:svg="http://www.w3.org/2000/svg"
   xmlns="http://www.w3.org/2000/svg"
   xmlns:sodipodi="http://sodipodi.sourceforge.net/DTD/sodipodi-0.dtd"
   xmlns:inkscape="http://www.inkscape.org/namespaces/inkscape"
   width="210mm"
   height="297mm"
   viewBox="0 0 210 297"
   version="1.1"
   id="svg4741"
   inkscape:version="0.92.4 (5da689c313, 2019-01-14)"
   sodipodi:docname="dessin.svg">
  <defs
     id="defs4735" />
  <sodipodi:namedview
     id="base"
     pagecolor="#ffffff"
     bordercolor="#666666"
     borderopacity="1.0"
     inkscape:pageopacity="0.0"
     inkscape:pageshadow="2"
     inkscape:zoom="3.0217733"
     inkscape:cx="357.46439"
     inkscape:cy="604.88263"
     inkscape:document-units="mm"
     inkscape:current-layer="layer1"
     showgrid="false"
     inkscape:window-width="1920"
     inkscape:window-height="1017"
     inkscape:window-x="-8"
     inkscape:window-y="-8"
     inkscape:window-maximized="1"
     showguides="false" />
  <metadata
     id="metadata4738">
    <rdf:RDF>
      <cc:Work
         rdf:about="">
        <dc:format>image/svg+xml</dc:format>
        <dc:type
           rdf:resource="http://purl.org/dc/dcmitype/StillImage" />
        <dc:title></dc:title>
      </cc:Work>
    </rdf:RDF>
  </metadata>
  <g
     inkscape:label="Calque 1"
     inkscape:groupmode="layer"
     id="layer1">
    <path
       style="fill:none;stroke:#000000;stroke-width:0.26458332px;stroke-linecap:butt;stroke-linejoin:miter;stroke-opacity:1"
       d="m 67.595519,136.59198 2.188974,8.23055 18.825174,-0.17512 3.152123,-8.05543 z"
       id="path5286"
       inkscape:connector-curvature="0"
       sodipodi:nodetypes="ccccc" />
    <path
       style="fill:none;stroke:#000000;stroke-width:0.26458332px;stroke-linecap:butt;stroke-linejoin:miter;stroke-opacity:1"
       d="m 67.595519,136.59198 c -16.943875,-21.53717 40.157921,-23.44891 24.166269,0"
       id="path5288"
       inkscape:connector-curvature="0"
       sodipodi:nodetypes="cc" />
    <path
       style="fill:none;stroke:#000000;stroke-width:0.5;stroke-linecap:butt;stroke-linejoin:miter;stroke-opacity:1"
       d="m 74.074882,138.34316 v 3.85259"
       id="path5290"
       inkscape:connector-curvature="0" />
    <path
       inkscape:connector-curvature="0"
       id="path5292"
       d="m 83.881486,138.34316 v 3.85259"
       style="fill:none;stroke:#000000;stroke-width:0.5;stroke-linecap:butt;stroke-linejoin:miter;stroke-opacity:1" />
    <ellipse
       style="opacity:1;fill:#ffffff;fill-opacity:1;stroke:#000000;stroke-width:0.1;stroke-linecap:round;stroke-miterlimit:4;stroke-dasharray:none;stroke-opacity:1"
       id="path5294"
       cx="68.558662"
       cy="127.48585"
       rx="3.5899172"
       ry="3.4147995" />
    <ellipse
       ry="3.4147995"
       rx="3.5899172"
       cy="123.98348"
       cx="81.867622"
       id="ellipse5296"
       style="opacity:1;fill:#ffffff;fill-opacity:1;stroke:#000000;stroke-width:0.1;stroke-linecap:round;stroke-miterlimit:4;stroke-dasharray:none;stroke-opacity:1" />
    <ellipse
       style="opacity:1;fill:#ffffff;fill-opacity:1;stroke:#000000;stroke-width:0.1;stroke-linecap:round;stroke-miterlimit:4;stroke-dasharray:none;stroke-opacity:1"
       id="ellipse5307"
       cx="76.876762"
       cy="131.77623"
       rx="3.5899172"
       ry="3.4147995" />
    <ellipse
       ry="3.4147995"
       rx="3.5899172"
       cy="131.6011"
       cx="88.9599"
       id="ellipse5309"
       style="opacity:1;fill:#ffffff;fill-opacity:1;stroke:#000000;stroke-width:0.1;stroke-linecap:round;stroke-miterlimit:4;stroke-dasharray:none;stroke-opacity:1" />
    <path
       style="opacity:1;fill:#ff0000;fill-opacity:1;stroke:#000000;stroke-width:0.12507647;stroke-linecap:round;stroke-miterlimit:4;stroke-dasharray:none;stroke-opacity:1"
       d="m 255.00898,514.59155 c -4.8642,-6.2563 -8.90535,-14.4187 -10.24219,-20.68738 -0.58251,-2.73152 -0.62858,-8.80635 -0.085,-11.21374 l 0.39595,-1.75368 0.26689,2.25636 c 0.3522,2.97747 1.64046,5.61269 3.8006,7.77438 4.86451,4.86798 13.01673,5.41538 18.52025,1.24358 6.75129,-5.11763 7.13509,-14.4849 0.82329,-20.09388 -4.24521,-3.7725 -10.52182,-4.55626 -15.74717,-1.96633 -1.09248,0.54148 -2.03287,0.93798 -2.08975,0.8811 -0.0569,-0.0569 0.9819,-1.10834 2.30839,-2.33658 11.51597,-10.66301 32.54211,-16.5444 54.90949,-15.35916 11.35253,0.60157 20.8792,2.88109 29.57333,7.07624 10.3142,4.97688 16.48667,11.79043 18.73482,20.68066 0.99616,3.9393 0.76443,10.97756 -0.51202,15.55122 -1.25108,4.48275 -3.55423,9.66568 -6.44696,14.50802 l -2.50976,4.20127 -45.50308,0.0652 -45.50308,0.0653 z m 40.01432,-4.04181 c 1.29675,-0.40052 2.93116,-1.2516 4.08877,-2.12914 6.74301,-5.11153 7.12327,-14.48207 0.81516,-20.08776 -6.85557,-6.09221 -18.06291,-3.87643 -22.01224,4.35198 -0.94718,1.97344 -1.03158,2.42429 -1.02214,5.46037 0.009,2.96607 0.11008,3.51525 0.97247,5.2949 1.69994,3.50808 5.92174,6.87589 9.4427,7.53265 2.16385,0.40361 5.65952,0.21196 7.71528,-0.423 z m 45.66855,-0.66186 c 1.29675,-0.40053 2.93116,-1.25161 4.08877,-2.12914 6.74301,-5.11153 7.12327,-14.48207 0.81516,-20.08777 -6.85558,-6.0922 -18.06292,-3.87643 -22.01224,4.35198 -0.94718,1.97345 -1.03158,2.4243 -1.02214,5.46037 0.009,2.96608 0.11008,3.51526 0.97247,5.29491 1.69994,3.50807 5.92174,6.87589 9.4427,7.53265 2.16385,0.40361 5.65952,0.21196 7.71528,-0.423 z M 313.8864,481.09684 c 1.29675,-0.40053 2.93115,-1.25161 4.08877,-2.12914 6.74301,-5.11154 7.12326,-14.48207 0.81516,-20.08777 -6.85558,-6.0922 -18.06292,-3.87643 -22.01224,4.35198 -0.94719,1.97345 -1.03158,2.4243 -1.02214,5.46037 0.009,2.96608 0.11008,3.51526 0.97246,5.29491 1.69995,3.50807 5.92174,6.87589 9.44271,7.53264 2.16385,0.40362 5.65951,0.21197 7.71528,-0.42299 z"
       id="path5311"
       inkscape:connector-curvature="0"
       transform="scale(0.26458333)" />
  </g>
</svg>
